HIERARCHY
ROOT Hips
{
    OFFSET   0.000000   0.000000   0.000000
    CHANNELS 6 Xposition Yposition Zposition Zrotation Xrotation Yrotation
    JOINT Chest
    {
        OFFSET   0.000000   8.007230   0.000000
        CHANNELS 3 Zrotation Xrotation Yrotation
        JOINT Chest2
        {
            OFFSET   0.000000  22.077100   0.000000
            CHANNELS 3 Zrotation Xrotation Yrotation
            JOINT Neck
            {
                OFFSET   0.000000  23.254800  -0.000021
                CHANNELS 3 Zrotation Xrotation Yrotation
                JOINT Head
                {
                    OFFSET   0.000000  14.370000   1.956610
                    CHANNELS 3 Zrotation Xrotation Yrotation
                    End Site
                    {
                        OFFSET   0.000000  19.566000   0.000000
                    }
                }
            }
            JOINT LeftCollar
            {
                OFFSET   3.911900  19.017000  -0.467063
                CHANNELS 3 Zrotation Xrotation Yrotation
                JOINT LeftShoulder
                {
                    OFFSET  10.383700   0.000000   0.000000
                    CHANNELS 3 Zrotation Xrotation Yrotation
                    JOINT LeftElbow
                    {
                        OFFSET  26.662100   0.001529   0.000325
                        CHANNELS 3 Zrotation Xrotation Yrotation
                        JOINT LeftWrist
                        {
                            OFFSET  28.869000  -0.000011  -0.000096
                            CHANNELS 3 Zrotation Xrotation Yrotation
                            JOINT LeftFinger0
                            {
                                OFFSET   2.044650  -2.323460   3.252850
                                CHANNELS 3 Zrotation Xrotation Yrotation
                                JOINT LeftFinger01
                                {
                                    OFFSET   3.088130   0.000000   0.000000
                                    CHANNELS 3 Zrotation Xrotation Yrotation
                                    JOINT LeftFinger02
                                    {
                                        OFFSET   2.639460   0.000000   0.000000
                                        CHANNELS 3 Zrotation Xrotation Yrotation
                                        End Site
                                        {
                                            OFFSET   2.582190   0.000000   0.000000
                                        }
                                    }
                                }
                            }
                            JOINT LeftFinger1
                            {
                                OFFSET   8.364480   0.000000   3.252850
                                CHANNELS 3 Zrotation Xrotation Yrotation
                                JOINT LeftFinger11
                                {
                                    OFFSET   4.646930   0.000000   0.000000
                                    CHANNELS 3 Zrotation Xrotation Yrotation
                                    JOINT LeftFinger12
                                    {
                                        OFFSET   2.323460   0.000000   0.000000
                                        CHANNELS 3 Zrotation Xrotation Yrotation
                                        End Site
                                        {
                                            OFFSET   2.273050   0.000000   0.000000
                                        }
                                    }
                                }
                            }
                            JOINT LeftFinger2
                            {
                                OFFSET   8.364480   0.000016   1.078090
                                CHANNELS 3 Zrotation Xrotation Yrotation
                                JOINT LeftFinger21
                                {
                                    OFFSET   5.111620   0.000000   0.000000
                                    CHANNELS 3 Zrotation Xrotation Yrotation
                                    JOINT LeftFinger22
                                    {
                                        OFFSET   2.788160   0.000017   0.000000
                                        CHANNELS 3 Zrotation Xrotation Yrotation
                                        End Site
                                        {
                                            OFFSET   2.727660   0.000000   0.000000
                                        }
                                    }
                                }
                            }
                            JOINT LeftFinger3
                            {
                                OFFSET   7.899780   0.000015  -1.078090
                                CHANNELS 3 Zrotation Xrotation Yrotation
                                JOINT LeftFinger31
                                {
                                    OFFSET   4.646920   0.000000   0.000000
                                    CHANNELS 3 Zrotation Xrotation Yrotation
                                    JOINT LeftFinger32
                                    {
                                        OFFSET   2.323470   0.000000   0.000000
                                        CHANNELS 3 Zrotation Xrotation Yrotation
                                        End Site
                                        {
                                            OFFSET   2.273050   0.000000   0.000000
                                        }
                                    }
                                }
                            }
                            JOINT LeftFinger4
                            {
                                OFFSET   7.435090   0.000000  -3.252850
                                CHANNELS 3 Zrotation Xrotation Yrotation
                                JOINT LeftFinger41
                                {
                                    OFFSET   3.717550   0.000000   0.000000
                                    CHANNELS 3 Zrotation Xrotation Yrotation
                                    JOINT LeftFinger42
                                    {
                                        OFFSET   1.858760   0.000000   0.000000
                                        CHANNELS 3 Zrotation Xrotation Yrotation
                                        End Site
                                        {
                                            OFFSET   1.818440   0.000000   0.000000
                                        }
                                    }
                                }
                            }
                        }
                    }
                }
            }
            JOINT RightCollar
            {
                OFFSET  -3.911900  19.017000  -0.467062
                CHANNELS 3 Zrotation Xrotation Yrotation
                JOINT RightShoulder
                {
                    OFFSET -10.383700   0.000015   0.000000
                    CHANNELS 3 Zrotation Xrotation Yrotation
                    JOINT RightElbow
                    {
                        OFFSET -26.662100   0.001341   0.000385
                        CHANNELS 3 Zrotation Xrotation Yrotation
                        JOINT RightWrist
                        {
                            OFFSET -28.869000   0.000025  -0.000080
                            CHANNELS 3 Zrotation Xrotation Yrotation
                            JOINT RightFinger0
                            {
                                OFFSET  -2.044650  -2.323490   3.252850
                                CHANNELS 3 Zrotation Xrotation Yrotation
                                JOINT RightFinger01
                                {
                                    OFFSET  -3.088130   0.000000   0.000000
                                    CHANNELS 3 Zrotation Xrotation Yrotation
                                    JOINT RightFinger02
                                    {
                                        OFFSET  -2.639460   0.000000   0.000000
                                        CHANNELS 3 Zrotation Xrotation Yrotation
                                        End Site
                                        {
                                            OFFSET  -2.582190   0.000000   0.000000
                                        }
                                    }
                                }
                            }
                            JOINT RightFinger1
                            {
                                OFFSET  -8.364480   0.000000   3.252850
                                CHANNELS 3 Zrotation Xrotation Yrotation
                                JOINT RightFinger11
                                {
                                    OFFSET  -4.646930   0.000000   0.000000
                                    CHANNELS 3 Zrotation Xrotation Yrotation
                                    JOINT RightFinger12
                                    {
                                        OFFSET  -2.323470   0.000000   0.000000
                                        CHANNELS 3 Zrotation Xrotation Yrotation
                                        End Site
                                        {
                                            OFFSET  -2.273050   0.000000   0.000000
                                        }
                                    }
                                }
                            }
                            JOINT RightFinger2
                            {
                                OFFSET  -8.364480   0.000000   1.078090
                                CHANNELS 3 Zrotation Xrotation Yrotation
                                JOINT RightFinger21
                                {
                                    OFFSET  -5.111610   0.000000   0.000000
                                    CHANNELS 3 Zrotation Xrotation Yrotation
                                    JOINT RightFinger22
                                    {
                                        OFFSET  -2.788160   0.000000   0.000000
                                        CHANNELS 3 Zrotation Xrotation Yrotation
                                        End Site
                                        {
                                            OFFSET  -2.727660   0.000000   0.000000
                                        }
                                    }
                                }
                            }
                            JOINT RightFinger3
                            {
                                OFFSET  -7.899780   0.000000  -1.078090
                                CHANNELS 3 Zrotation Xrotation Yrotation
                                JOINT RightFinger31
                                {
                                    OFFSET  -4.646920   0.000000   0.000000
                                    CHANNELS 3 Zrotation Xrotation Yrotation
                                    JOINT RightFinger32
                                    {
                                        OFFSET  -2.323470   0.000000   0.000000
                                        CHANNELS 3 Zrotation Xrotation Yrotation
                                        End Site
                                        {
                                            OFFSET  -2.273050   0.000000   0.000000
                                        }
                                    }
                                }
                            }
                            JOINT RightFinger4
                            {
                                OFFSET  -7.435090   0.000000  -3.252850
                                CHANNELS 3 Zrotation Xrotation Yrotation
                                JOINT RightFinger41
                                {
                                    OFFSET  -3.717550   0.000000   0.000000
                                    CHANNELS 3 Zrotation Xrotation Yrotation
                                    JOINT RightFinger42
                                    {
                                        OFFSET  -1.858770   0.000000   0.000000
                                        CHANNELS 3 Zrotation Xrotation Yrotation
                                        End Site
                                        {
                                            OFFSET  -1.818440   0.000000   0.000000
                                        }
                                    }
                                }
                            }
                        }
                    }
                }
            }
        }
    }
    JOINT LeftHip
    {
        OFFSET   9.783010   0.000000   0.000000
        CHANNELS 3 Zrotation Xrotation Yrotation
        JOINT LeftKnee
        {
            OFFSET   0.000070 -41.789100   0.000028
            CHANNELS 3 Zrotation Xrotation Yrotation
            JOINT LeftAnkle
            {
                OFFSET   0.000087 -41.133200  -0.000100
                CHANNELS 3 Zrotation Xrotation Yrotation
                JOINT LeftToe
                {
                    OFFSET   0.000000  -6.358960  14.674500
                    CHANNELS 3 Zrotation Xrotation Yrotation
                    End Site
                    {
                        OFFSET   0.000000   0.000000   3.913200
                    }
                }
            }
        }
    }
    JOINT RightHip
    {
        OFFSET  -9.783020   0.000000   0.000000
        CHANNELS 3 Zrotation Xrotation Yrotation
        JOINT RightKnee
        {
            OFFSET   0.000044 -41.789100  -0.000870
            CHANNELS 3 Zrotation Xrotation Yrotation
            JOINT RightAnkle
            {
                OFFSET  -0.000090 -41.133200  -0.000245
                CHANNELS 3 Zrotation Xrotation Yrotation
                JOINT RightToe
                {
                    OFFSET   0.000000  -6.358960  14.674500
                    CHANNELS 3 Zrotation Xrotation Yrotation
                    End Site
                    {
                        OFFSET   0.000000   0.000000   3.913200
                    }
                }
            }
        }
    }
}
MOTION
Frames: 4
Frame Time:   0.016667
 -1.023240  89.515000   1.209270  -3.942040  -9.670830  -5.617600   1.150700   5.842720   0.771561   2.239390  11.699400   1.435610   0.489273  -0.296869   0.006638   0.802428  -0.602279   6.566430  -6.443650  -0.815286  -0.477092 -72.470300  15.550200  -1.819080  -1.575900  -3.041550 -19.294800  16.597400  -9.402490   7.126580  38.866500  35.300400 -59.304500 -35.721800   0.001323   0.001019 -12.860900  -0.000474   0.001095 -35.399600   8.622460 -11.912800 -29.700700  -0.000530  -0.002254 -20.790500   0.002981  -0.002673 -30.013600   1.185310  -2.050840 -45.052300   0.006134  -0.009456 -30.004800  -0.007219  -0.010491 -28.843400   1.143170  -2.074620 -43.296200   0.006249  -0.010330 -28.835300  -0.011089  -0.000564 -35.775100   0.054191  -0.076036 -53.670400   0.003701  -0.011787 -35.739300  -0.002480  -0.011829  10.918900   0.578831   6.897500  68.245400  13.946600  -4.495560  -2.189940  -3.958050  16.247800 -17.567600  -8.587770  -1.704650 -37.992100  33.357600  67.656300  32.100500   0.000834  -0.001621  11.050400  -0.005627  -0.002061  39.752200   8.240510   9.771350  33.103300  -0.002033   0.012157  23.313000   0.002479   0.012069  35.184800   3.001070   4.246940  52.944200  -0.000689  -0.000547  35.260800   0.005220   0.000367  36.725800   1.619400   2.169400  54.081400  -0.005651  -0.002800  36.218000   0.003724   0.003730  50.981600  -4.915170  -3.977860  76.733200   0.002643  -0.001202  51.101700   0.000180   0.002736   3.271290  13.052400   4.221430   1.866400   0.157379   9.217140  -2.402140  -3.990600   3.053680   0.000000   0.000000  -0.000000   4.259200  11.384700  -5.279260  -0.852207   1.825860  -8.767620   0.399349  -4.097570   3.435150   0.000000   0.000000   0.000000
 -1.028920  89.514900   1.204690  -3.937560  -9.690760  -5.579810   1.150710   5.850820   0.772209   2.239280  11.715600   1.436790   0.486055  -0.292305   0.006623   0.797756  -0.592689   6.555840  -6.437030  -0.815219  -0.477096 -72.464200  15.584300  -1.852130  -1.561600  -3.060430 -19.309700  16.615700  -9.431580   7.129060  38.856500  35.287000 -59.314900 -35.727000   0.001321   0.001021 -12.863500  -0.000473   0.001093 -35.428800   8.634530 -11.912600 -29.725500  -0.000534  -0.002244 -20.807900   0.002980  -0.002662 -30.027600   1.180560  -2.041510 -45.072900   0.006119  -0.009444 -30.018600  -0.007224  -0.010491 -28.854100   1.138500  -2.065250 -43.312000   0.006237  -0.010312 -28.845900  -0.011095  -0.000532 -35.775000   0.054401  -0.076076 -53.670400   0.003701  -0.011790 -35.739200  -0.002493  -0.011833  10.919400   0.574910   6.896530  68.254100  13.960300  -4.505690  -2.180660  -3.962170  16.241900 -17.567600  -8.585390  -1.704650 -37.993800  33.375000  67.683700  32.107900   0.000833  -0.001620  11.050300  -0.005620  -0.002061  39.752000   8.240520   9.770280  33.102900  -0.002033   0.012158  23.313000   0.002479   0.012067  35.181300   2.998000   4.243400  52.938800  -0.000690  -0.000548  35.257200   0.005220   0.000365  36.719800   1.619810   2.170180  54.081400  -0.005652  -0.002798  36.218000   0.003721   0.003729  50.980600  -4.915120  -3.977830  76.730000   0.002642  -0.001204  51.100700   0.000178   0.002734   3.272390  13.074400   4.214250   1.864190   0.125577   9.206220  -2.399150  -3.966420   3.035550   0.000000   0.000000   0.000000   4.271880  11.391500  -5.309120  -0.870526   1.847020  -8.756770   0.408361  -4.106090   3.412890   0.000000   0.000000   0.000000
 -1.036810  89.514800   1.197180  -3.930550  -9.723340  -5.520030   1.150650   5.864200   0.774933   2.238770  11.742400   1.442070   0.480214  -0.281924   0.006593   0.788981  -0.571260   6.545240  -6.426000  -0.815152  -0.477126 -72.454900  15.644700  -1.912640  -1.535190  -3.089970 -19.332100  16.637000  -9.484670   7.132040  38.828500  35.265100 -59.335900 -35.740000   0.001316   0.001022 -12.870000  -0.000472   0.001086 -35.484800   8.646720 -11.908600 -29.772200  -0.000541  -0.002212 -20.840600   0.002975  -0.002635 -30.049500   1.167120  -2.016540 -45.104900   0.006082  -0.009413 -30.040000  -0.007235  -0.010491 -28.870600   1.125390  -2.040120 -43.335900   0.006209  -0.010270 -28.861800  -0.011109  -0.000455 -35.774900   0.054695  -0.076115 -53.670400   0.003700  -0.011796 -35.739100  -0.002524  -0.011844  10.920200   0.568446   6.893090  68.265600  13.984600  -4.516020  -2.165160  -3.968970  16.228300 -17.567400  -8.578580  -1.704620 -37.995500  33.392500  67.711000  32.115400   0.000831  -0.001618  11.050200  -0.005610  -0.002057  39.749500   8.240530   9.769210  33.100000  -0.002032   0.012158  23.313000   0.002480   0.012062  35.174800   2.994930   4.239850  52.928600  -0.000692  -0.000551  35.250400   0.005219   0.000359  36.709600   1.622700   2.174920  54.081300  -0.005654  -0.002797  36.218000   0.003714   0.003724  50.978000  -4.915020  -3.977770  76.723800   0.002637  -0.001206  51.098000   0.000171   0.002730   3.275330  13.112900   4.203970   1.858540   0.070700   9.186400  -2.393200  -3.926410   3.008010   0.000000   0.000000   0.000000   4.290660  11.405700  -5.353940  -0.897371   1.876460  -8.738510   0.421128  -4.118310   3.374100  -0.000000   0.000000   0.000000
 -1.039630  89.514800   1.191480  -3.926030  -9.748240  -5.479290   1.150410   5.874710   0.781084   2.237560  11.763500   1.454300   0.474577  -0.267989   0.006563   0.779873  -0.543153   6.550570  -6.415060  -0.815466  -0.478120 -72.450000  15.702300  -1.975560  -1.510220  -3.113830 -19.345100  16.631700  -9.541410   7.110110  38.804800  35.259800 -59.375000 -35.760900   0.001311   0.001016 -12.880400  -0.000477   0.001070 -35.549500   8.646650 -11.884700 -29.823700  -0.000549  -0.002158 -20.876600   0.002958  -0.002597 -30.063600   1.143380  -1.974440 -45.124800   0.006027  -0.009365 -30.053200  -0.007252  -0.010490 -28.878800   1.102310  -1.997660 -43.348100   0.006168  -0.010206 -28.869900  -0.011126  -0.000338 -35.774900   0.054822  -0.076105 -53.666500   0.003701  -0.011806 -35.739100  -0.002570  -0.011861  10.920900   0.563389   6.886480  68.269700  14.006500  -4.516060  -2.152610  -3.972900  16.208800 -17.570400  -8.564900  -1.702070 -37.999500  33.392500  67.710600  32.109600   0.000843  -0.001608  11.050200  -0.005607  -0.002040  39.737200   8.240400   9.775850  33.089700  -0.002036   0.012152  23.304700   0.002487   0.012055  35.165300   3.002640   4.251910  52.914800  -0.000699  -0.000557  35.241300   0.005215   0.000349  36.698800   1.630720   2.186670  54.081300  -0.005658  -0.002797  36.217800   0.003704   0.003713  50.972300  -4.914900  -3.977690  76.715300   0.002630  -0.001209  51.092600   0.000159   0.002723   3.281200  13.156200   4.200450   1.847010   0.010204   9.166530  -2.384250  -3.887290   2.991650  -0.000000   0.000000   0.000000   4.299870  11.422900  -5.379440  -0.910197   1.887280  -8.719730   0.426312  -4.123670   3.337910  -0.000000   0.000000  -0.000000
